<?xml version="1.0" standalone="no"?>
<!DOCTYPE svg PUBLIC "-//W3C//DTD SVG 20010904//EN"
 "http://www.w3.org/TR/2001/REC-SVG-20010904/DTD/svg10.dtd">
<svg version="1.0" xmlns="http://www.w3.org/2000/svg"
 width="592.000000pt" height="592.000000pt" viewBox="0 0 592.000000 592.000000"
 preserveAspectRatio="xMidYMid meet">
<metadata>
Created by potrace 1.11, written by Peter Selinger 2001-2013
</metadata>
<g transform="translate(0.000000,592.000000) scale(0.100000,-0.100000)"
fill="#000000" stroke="none">
<path d="M991 4398 c-47 -20 -71 -43 -103 -103 -22 -39 -22 -46 -23 -540 0
-275 3 -526 7 -557 29 -217 185 -404 398 -479 85 -29 267 -36 356 -13 74 19
152 54 201 91 54 40 137 128 159 168 18 34 34 45 34 25 0 -6 39 -50 88 -98 59
-60 109 -99 155 -123 l68 -35 -31 -35 c-57 -62 -74 -113 -75 -219 0 -78 4
-103 22 -141 26 -56 90 -122 142 -149 77 -39 210 -42 284 -7 58 28 125 95 153
155 38 79 40 202 4 277 -13 28 -31 57 -38 64 -13 13 -6 18 49 38 35 13 83 32
106 43 53 25 63 11 20 -27 -38 -33 -72 -90 -85 -144 -5 -19 -10 -104 -10 -189
-2 -168 8 -208 54 -229 54 -24 115 -7 139 38 11 23 15 64 15 181 0 84 5 160
10 170 6 11 33 26 64 35 59 17 81 36 91 78 5 18 14 27 29 28 26 1 45 5 69 14
9 4 17 3 17 -3 0 -5 -6 -12 -14 -15 -8 -3 -29 -36 -48 -74 l-33 -68 0 -281 c0
-316 2 -326 66 -345 44 -14 76 -7 110 22 l24 21 2 266 c2 224 5 272 19 299 21
41 63 59 126 54 30 -2 77 -51 84 -87 14 -75 -21 -121 -107 -141 -63 -14 -78
-23 -97 -60 -28 -52 5 -129 61 -140 159 -33 323 92 346 264 20 147 -48 281
-175 343 -40 20 -65 24 -136 25 l-86 0 46 45 c72 72 145 196 153 265 1 6 6 21
11 35 5 14 11 118 13 232 5 253 9 266 94 283 21 4 21 1 21 -198 1 -111 3 -220
6 -242 33 -272 245 -488 511 -521 54 -6 151 -6 201 2 32 5 42 3 42 -7 0 -22
-35 -70 -66 -90 -27 -17 -49 -22 -145 -32 -37 -4 -103 -42 -130 -74 -36 -44
-48 -83 -46 -156 2 -62 6 -80 30 -115 15 -23 44 -53 65 -67 102 -67 328 -39
477 60 128 86 233 240 261 385 9 46 12 1294 3 1344 -16 93 -113 169 -215 168
-61 0 -136 -31 -172 -69 -54 -59 -56 -71 -57 -438 0 -323 -1 -342 -21 -380
-59 -113 -242 -103 -280 15 -4 14 -8 178 -9 365 -2 331 -2 341 -24 387 -47 98
-160 143 -275 110 -40 -11 -57 -12 -86 -2 -55 18 -116 18 -200 -1 -89 -20
-139 -40 -198 -81 -95 -65 -192 -200 -213 -295 -7 -29 -15 -53 -18 -53 -3 1
-17 24 -30 53 -59 126 -188 256 -316 318 -148 71 -316 90 -485 55 -14 -3 -38
-8 -54 -12 -32 -7 -116 -44 -160 -71 -40 -24 -61 -41 -111 -88 l-43 -41 -6 39
c-13 79 -71 149 -141 169 -26 8 -140 12 -322 13 -155 0 -285 4 -289 8 -4 4 -8
37 -9 74 -3 108 -52 181 -144 217 -54 21 -123 19 -180 -6z m940 -790 l-15 -63
-66 -1 c-138 -1 -217 -87 -225 -245 -3 -68 -29 -110 -83 -138 -74 -38 -173 -6
-208 67 -15 31 -18 66 -18 212 -1 96 0 183 2 193 4 16 27 17 296 18 237 0 322
5 331 18 1 1 -6 -27 -14 -61z m780 33 c82 -32 147 -120 156 -210 15 -162 -98
-292 -256 -292 -99 -1 -199 66 -239 160 -13 33 -19 136 -9 171 21 77 93 152
164 173 51 16 142 15 184 -2z m-136 -1054 c32 -8 73 -58 76 -92 5 -46 -3 -66
-35 -98 -28 -28 -40 -33 -72 -32 -59 3 -60 3 -87 30 -35 36 -43 87 -20 133 17
35 70 73 96 68 7 -1 26 -6 42 -9z"/>
<path d="M1999 2786 c-140 -50 -228 -183 -216 -328 10 -114 57 -192 153 -254
90 -57 215 -60 247 -5 45 76 2 157 -88 166 -39 5 -56 12 -77 36 -37 39 -42 98
-13 143 14 21 82 58 103 55 48 -8 92 39 92 99 0 35 -6 49 -29 73 -25 25 -37
29 -83 29 -29 -1 -69 -7 -89 -14z"/>
<path d="M3970 2399 c-61 -24 -87 -113 -51 -172 64 -103 221 -57 221 66 0 77
-95 137 -170 106z"/>
</g>
</svg>
